<?xml version="1.0" encoding="utf-8" standalone="no"?>
<!DOCTYPE svg PUBLIC "-//W3C//DTD SVG 1.0//EN" "http://www.w3.org/TR/2001/REC-SVG-20010904/DTD/svg10.dtd"[]>
<svg xmlns="http://www.w3.org/2000/svg" xmlns:xlink="http://www.w3.org/1999/xlink" id="body_1" width="759.19" height="124.92999" viewBox="86.49 442.06 759.19 124.92999">
  <g transform="matrix(1.1864197 0 0 1.1864197 0 0)">
    <g>
      <g transform="matrix(1 0 0 1 92.64171 434.81476)">
        <g>
          <path d="M42.140625 -13.609375C 42.140625 -18.753906 39.36328 -22.890625 33.8125 -26.015625C 32.71875 -26.585938 29.335938 -28.117188 23.671875 -30.609375C 18.523438 -32.804688 15.285156 -35.0625 13.953125 -37.375C 13.265625 -38.64453 12.921875 -40 12.921875 -41.4375C 12.921875 -45.3125 14.796875 -48 18.546875 -49.5C 20.171875 -50.132812 21.960938 -50.453125 23.921875 -50.453125C 28.785156 -50.453125 32.48828 -48.804688 35.03125 -45.515625C 36.70703 -43.265625 37.515625 -40.51953 37.453125 -37.28125L37.453125 -37.28125L40.0625 -37.28125L40.0625 -52.453125C 38.664062 -52.453125 37.851562 -52.01953 37.625 -51.15625C 37.507812 -50.75 37.453125 -50.195312 37.453125 -49.5C 33.347656 -51.757812 28.722656 -52.890625 23.578125 -52.890625C 17.335938 -52.890625 12.484375 -51.15625 9.015625 -47.6875C 6.703125 -45.257812 5.546875 -42.42578 5.546875 -39.1875C 5.546875 -34.33203 8.265625 -30.375 13.703125 -27.3125C 14.679688 -26.789062 17.972656 -25.316406 23.578125 -22.890625C 28.785156 -20.578125 32.08203 -18.234375 33.46875 -15.859375C 34.21875 -14.535156 34.59375 -13.09375 34.59375 -11.53125C 34.59375 -7.488281 32.628906 -4.570312 28.703125 -2.78125C 26.847656 -1.96875 24.796875 -1.5625 22.546875 -1.5625C 13.703125 -1.675781 8.785156 -7.082031 7.796875 -17.78125L7.796875 -17.78125L5.203125 -17.78125L5.203125 0.171875C 6.585938 0.171875 7.394531 -0.234375 7.625 -1.046875C 7.738281 -1.503906 7.796875 -2.34375 7.796875 -3.5625C 12.253906 -0.613281 17.3125 0.859375 22.96875 0.859375C 29.625 0.859375 34.76953 -0.929688 38.40625 -4.515625C 40.89453 -7.054688 42.140625 -10.085938 42.140625 -13.609375z" stroke="none" fill="#000000" fill-rule="nonzero" />
        </g>
      </g>
    </g>
    <g>
      <g transform="matrix(1 0 0 1 139.11432 434.81476)">
        <g>
          <path d="M1.734375 -34.6875L7.796875 -34.6875L7.796875 -10.234375C 8.203125 -3.003906 11.53125 0.722656 17.78125 0.953125C 23.09375 0.953125 26.414062 -2.3125 27.75 -8.84375C 27.75 -8.90625 27.75 -8.960938 27.75 -9.015625L27.75 -9.015625L25.40625 -9.453125C 23.957031 -4.648438 21.847656 -2.046875 19.078125 -1.640625C 15.953125 -1.765625 14.363281 -3.992188 14.3125 -8.328125L14.3125 -8.328125L14.3125 -34.6875L27.75 -34.6875L27.75 -36.84375L14.3125 -36.84375L14.3125 -46.90625L7.796875 -45.078125L7.796875 -36.84375L1.734375 -36.84375L1.734375 -34.6875z" stroke="none" fill="#000000" fill-rule="nonzero" />
        </g>
      </g>
    </g>
    <g>
      <g transform="matrix(1 0 0 1 167.29266 434.81476)">
        <g>
          <path d="M21.59375 -35.546875C 25.632812 -35.546875 28.320312 -33.84375 29.65625 -30.4375C 30.113281 -29.332031 30.34375 -28.144531 30.34375 -26.875C 30.34375 -23.988281 28.957031 -22.226562 26.1875 -21.59375C 24.738281 -21.300781 22.6875 -21.179688 20.03125 -21.234375L20.03125 -21.234375L10.84375 -21.5C 11.125 -28.144531 13.289062 -32.476562 17.34375 -34.5C 18.664062 -35.195312 20.082031 -35.546875 21.59375 -35.546875zM36.671875 -8.328125L34.5 -9.109375C 32.476562 -4.710938 29.210938 -2.222656 24.703125 -1.640625C 24.128906 -1.585938 23.582031 -1.5625 23.0625 -1.5625C 16.988281 -1.5625 13.175781 -5.171875 11.625 -12.390625C 11.15625 -14.421875 10.894531 -16.648438 10.84375 -19.078125L10.84375 -19.078125L21.234375 -18.90625C 28.285156 -18.789062 32.828125 -19.453125 34.859375 -20.890625C 36.410156 -22.046875 37.1875 -23.695312 37.1875 -25.84375C 37.1875 -29.769531 35.195312 -32.890625 31.21875 -35.203125C 28.382812 -36.878906 25.117188 -37.71875 21.421875 -37.71875C 14.191406 -37.71875 9.015625 -34.710938 5.890625 -28.703125C 4.273438 -25.578125 3.46875 -22.050781 3.46875 -18.125C 3.46875 -10.957031 6.039062 -5.640625 11.1875 -2.171875C 14.25 -0.148438 17.742188 0.859375 21.671875 0.859375C 27.910156 0.859375 32.503906 -1.390625 35.453125 -5.890625C 35.921875 -6.703125 36.328125 -7.515625 36.671875 -8.328125z" stroke="none" fill="#000000" fill-rule="nonzero" />
        </g>
      </g>
    </g>
    <g>
      <g transform="matrix(1 0 0 1 207.52267 434.81476)">
        <g>
          <path d="M21.765625 -2.171875L15.6875 -2.171875L15.6875 -34.6875L25.65625 -34.6875L25.65625 -36.84375L15.6875 -36.84375L15.6875 -37.375C 15.6875 -47.25 17.160156 -52.851562 20.109375 -54.1875C 20.742188 -54.476562 21.441406 -54.625 22.203125 -54.625C 23.992188 -54.625 25.492188 -53.55078 26.703125 -51.40625C 27.742188 -49.5625 28.492188 -48.46875 28.953125 -48.125C 29.421875 -47.76953 29.941406 -47.59375 30.515625 -47.59375C 32.421875 -47.59375 33.55078 -48.40625 33.90625 -50.03125C 33.95703 -50.3125 33.984375 -50.570312 33.984375 -50.8125C 33.984375 -52.945312 32.539062 -54.617188 29.65625 -55.828125C 27.976562 -56.460938 26.097656 -56.78125 24.015625 -56.78125C 18.578125 -56.78125 14.53125 -54.53125 11.875 -50.03125C 10.082031 -46.90625 9.1875 -42.972656 9.1875 -38.234375L9.1875 -38.234375L9.1875 -36.84375L3.125 -36.84375L3.125 -34.6875L9.1875 -34.6875L9.1875 -7.375C 9.1875 -4.707031 8.4375 -3.113281 6.9375 -2.59375C 6.070312 -2.3125 4.65625 -2.171875 2.6875 -2.171875L2.6875 -2.171875L2.6875 0L23.921875 0C 23.921875 -1.269531 23.488281 -1.960938 22.625 -2.078125C 22.394531 -2.140625 22.109375 -2.171875 21.765625 -2.171875z" stroke="none" fill="#000000" fill-rule="nonzero" />
        </g>
      </g>
    </g>
    <g>
      <g transform="matrix(1 0 0 1 233.88026 434.81476)">
        <g>
          <path d="M33.90625 0.859375C 38.351562 0.859375 40.804688 -1.828125 41.265625 -7.203125C 41.328125 -7.546875 41.359375 -7.863281 41.359375 -8.15625L41.359375 -8.15625L39.109375 -8.234375C 38.703125 -4.015625 37.570312 -1.878906 35.71875 -1.828125C 34.21875 -1.941406 33.4375 -3.441406 33.375 -6.328125L33.375 -6.328125L33.375 -24.625C 33.375 -32.882812 29.242188 -37.25 20.984375 -37.71875C 20.460938 -37.71875 19.941406 -37.71875 19.421875 -37.71875C 12.941406 -37.71875 8.609375 -36.210938 6.421875 -33.203125C 5.722656 -32.222656 5.375 -31.242188 5.375 -30.265625C 5.375 -28.472656 6.210938 -27.429688 7.890625 -27.140625C 8.179688 -27.078125 8.46875 -27.046875 8.75 -27.046875C 10.082031 -27.046875 11.066406 -27.882812 11.703125 -29.5625C 12.515625 -31.695312 13.066406 -32.96875 13.359375 -33.375C 14.453125 -34.820312 16.15625 -35.546875 18.46875 -35.546875C 23.894531 -35.203125 26.695312 -32.222656 26.875 -26.609375L26.875 -26.609375L26.875 -21.15625C 13.289062 -21.15625 5.519531 -18.320312 3.5625 -12.65625C 3.207031 -11.5625 3.03125 -10.378906 3.03125 -9.109375C 3.03125 -4.710938 4.96875 -1.707031 8.84375 -0.09375C 10.40625 0.539062 12.050781 0.859375 13.78125 0.859375C 18 0.859375 21.554688 -0.582031 24.453125 -3.46875C 25.492188 -4.5625 26.273438 -5.71875 26.796875 -6.9375C 27.484375 -1.789062 29.851562 0.804688 33.90625 0.859375zM16.640625 -2.59375C 13.117188 -2.59375 10.953125 -4.359375 10.140625 -7.890625C 9.972656 -8.703125 9.890625 -9.597656 9.890625 -10.578125C 9.890625 -14.453125 12.113281 -16.910156 16.5625 -17.953125C 18.925781 -18.472656 22.363281 -18.757812 26.875 -18.8125L26.875 -18.8125L26.875 -11.875C 26.007812 -7.882812 23.898438 -5.082031 20.546875 -3.46875C 19.210938 -2.882812 17.910156 -2.59375 16.640625 -2.59375z" stroke="none" fill="#000000" fill-rule="nonzero" />
        </g>
      </g>
    </g>
    <g>
      <g transform="matrix(1 0 0 1 275.67093 434.81476)">
        <g>
          <path d="M19.5 -2.171875L15.609375 -2.171875L15.609375 -20.890625C 15.773438 -26.265625 17.679688 -30.140625 21.328125 -32.515625C 22.890625 -33.492188 24.476562 -33.984375 26.09375 -33.984375C 29.625 -33.984375 32.023438 -32.335938 33.296875 -29.046875C 33.816406 -27.710938 34.078125 -26.207031 34.078125 -24.53125L34.078125 -24.53125L34.078125 -7.375C 34.078125 -4.707031 33.320312 -3.113281 31.8125 -2.59375C 30.945312 -2.3125 29.535156 -2.171875 27.578125 -2.171875L27.578125 -2.171875L27.578125 0L47.078125 0C 47.078125 -1.269531 46.64453 -1.960938 45.78125 -2.078125C 45.55078 -2.140625 45.257812 -2.171875 44.90625 -2.171875L44.90625 -2.171875L40.578125 -2.171875L40.578125 -23.671875C 40.578125 -29.453125 38.58203 -33.58203 34.59375 -36.0625C 32.73828 -37.164062 30.742188 -37.71875 28.609375 -37.71875C 24.335938 -37.71875 20.8125 -36.007812 18.03125 -32.59375C 16.988281 -31.269531 16.148438 -29.796875 15.515625 -28.171875L15.515625 -28.171875L15.171875 -36.84375L2.59375 -36.84375L2.59375 -34.6875L9.109375 -34.6875L9.109375 -7.375C 9.109375 -4.707031 8.351562 -3.113281 6.84375 -2.59375C 5.976562 -2.3125 4.5625 -2.171875 2.59375 -2.171875L2.59375 -2.171875L2.59375 0L21.671875 0C 21.671875 -1.269531 21.238281 -1.960938 20.375 -2.078125C 20.144531 -2.140625 19.851562 -2.171875 19.5 -2.171875z" stroke="none" fill="#000000" fill-rule="nonzero" />
        </g>
      </g>
    </g>
    <g>
      <g transform="matrix(1 0 0 1 324.918 434.81476)">
        <g>
          <path d="M8.9375 13.78125C 8.007812 13.78125 7.3125 13.085938 6.84375 11.703125C 6.207031 9.972656 5.601562 8.90625 5.03125 8.5C 4.507812 8.144531 3.898438 7.96875 3.203125 7.96875C 1.359375 7.96875 0.289062 8.78125 0 10.40625C -0.0625 10.632812 -0.09375 10.835938 -0.09375 11.015625C -0.09375 13.210938 1.179688 14.800781 3.734375 15.78125C 4.890625 16.238281 6.101562 16.46875 7.375 16.46875C 11.9375 16.46875 15.894531 13.664062 19.25 8.0625C 20.632812 5.8125 21.960938 3.125 23.234375 0L23.234375 0L36.0625 -31.640625C 36.64453 -33.265625 37.28125 -34.191406 37.96875 -34.421875C 38.375 -34.535156 38.835938 -34.59375 39.359375 -34.59375C 40.515625 -34.59375 41.179688 -34.910156 41.359375 -35.546875C 41.472656 -35.890625 41.53125 -36.320312 41.53125 -36.84375L41.53125 -36.84375L28.34375 -36.84375L28.34375 -34.59375L34.6875 -34.59375L23.578125 -6.84375L11.703125 -34.59375L17.515625 -34.59375L17.515625 -36.84375L0.609375 -36.84375L0.609375 -34.59375L4.859375 -34.59375L20.46875 0C 17.226562 7.625 14.191406 12.046875 11.359375 13.265625C 10.546875 13.609375 9.738281 13.78125 8.9375 13.78125z" stroke="none" fill="#000000" fill-rule="nonzero" />
        </g>
      </g>
    </g>
    <g>
      <g transform="matrix(1 0 0 1 366.88208 434.81476)">
        <g></g>
      </g>
    </g>
    <g>
      <g transform="matrix(1 0 0 1 383.78912 434.81476)">
        <g>
          <path d="M24.703125 0L24.703125 -2.25L17.859375 -2.25L17.859375 -23.84375L26.09375 -23.84375L39.96875 0L53.0625 0C 53.0625 -1.269531 52.710938 -1.992188 52.015625 -2.171875C 51.734375 -2.222656 51.390625 -2.25 50.984375 -2.25L50.984375 -2.25L47.6875 -2.25L33.71875 -24.625C 39.21875 -25.945312 42.976562 -28.804688 45 -33.203125C 45.75 -34.941406 46.125 -36.70703 46.125 -38.5C 46.125 -42.83203 44.242188 -46.30078 40.484375 -48.90625C 37.421875 -50.976562 33.632812 -52.015625 29.125 -52.015625L29.125 -52.015625L3.46875 -52.015625L3.46875 -49.765625L10.40625 -49.765625L10.40625 -2.25L3.46875 -2.25L3.46875 0L24.703125 0zM26.53125 -49.765625C 31.5 -49.765625 34.9375 -47.742188 36.84375 -43.703125C 37.59375 -42.023438 37.96875 -40.257812 37.96875 -38.40625C 37.96875 -34.25 36.523438 -31.015625 33.640625 -28.703125C 31.671875 -27.140625 29.390625 -26.359375 26.796875 -26.359375L26.796875 -26.359375L17.859375 -26.359375L17.859375 -49.765625z" stroke="none" fill="#000000" fill-rule="nonzero" />
        </g>
      </g>
    </g>
    <g>
      <g transform="matrix(1 0 0 1 436.8511 434.81476)">
        <g>
          <path d="M21.59375 -35.546875C 25.632812 -35.546875 28.320312 -33.84375 29.65625 -30.4375C 30.113281 -29.332031 30.34375 -28.144531 30.34375 -26.875C 30.34375 -23.988281 28.957031 -22.226562 26.1875 -21.59375C 24.738281 -21.300781 22.6875 -21.179688 20.03125 -21.234375L20.03125 -21.234375L10.84375 -21.5C 11.125 -28.144531 13.289062 -32.476562 17.34375 -34.5C 18.664062 -35.195312 20.082031 -35.546875 21.59375 -35.546875zM36.671875 -8.328125L34.5 -9.109375C 32.476562 -4.710938 29.210938 -2.222656 24.703125 -1.640625C 24.128906 -1.585938 23.582031 -1.5625 23.0625 -1.5625C 16.988281 -1.5625 13.175781 -5.171875 11.625 -12.390625C 11.15625 -14.421875 10.894531 -16.648438 10.84375 -19.078125L10.84375 -19.078125L21.234375 -18.90625C 28.285156 -18.789062 32.828125 -19.453125 34.859375 -20.890625C 36.410156 -22.046875 37.1875 -23.695312 37.1875 -25.84375C 37.1875 -29.769531 35.195312 -32.890625 31.21875 -35.203125C 28.382812 -36.878906 25.117188 -37.71875 21.421875 -37.71875C 14.191406 -37.71875 9.015625 -34.710938 5.890625 -28.703125C 4.273438 -25.578125 3.46875 -22.050781 3.46875 -18.125C 3.46875 -10.957031 6.039062 -5.640625 11.1875 -2.171875C 14.25 -0.148438 17.742188 0.859375 21.671875 0.859375C 27.910156 0.859375 32.503906 -1.390625 35.453125 -5.890625C 35.921875 -6.703125 36.328125 -7.515625 36.671875 -8.328125z" stroke="none" fill="#000000" fill-rule="nonzero" />
        </g>
      </g>
    </g>
    <g>
      <g transform="matrix(1 0 0 1 477.08112 434.81476)">
        <g>
          <path d="M16.46875 -1.46875C 20.457031 -1.46875 23.144531 -2.679688 24.53125 -5.109375C 25.050781 -5.984375 25.3125 -6.9375 25.3125 -7.96875C 25.3125 -10.40625 23.550781 -12.488281 20.03125 -14.21875C 19.28125 -14.625 18.035156 -15.203125 16.296875 -15.953125C 11.554688 -17.921875 8.40625 -19.769531 6.84375 -21.5C 5.164062 -23.40625 4.328125 -25.628906 4.328125 -28.171875C 4.328125 -32.160156 6.523438 -34.96875 10.921875 -36.59375C 12.941406 -37.34375 15.140625 -37.71875 17.515625 -37.71875C 21.328125 -37.71875 24.617188 -36.90625 27.390625 -35.28125C 27.390625 -36.95703 27.796875 -37.910156 28.609375 -38.140625C 28.953125 -38.203125 29.328125 -38.234375 29.734375 -38.234375L29.734375 -38.234375L29.734375 -27.390625L27.484375 -27.390625C 27.367188 -32.710938 24.421875 -35.398438 18.640625 -35.453125C 14.304688 -35.453125 11.617188 -34.179688 10.578125 -31.640625C 10.285156 -30.953125 10.140625 -30.234375 10.140625 -29.484375C 10.140625 -26.992188 11.929688 -24.882812 15.515625 -23.15625C 16.328125 -22.75 17.597656 -22.195312 19.328125 -21.5C 24.015625 -19.59375 27.140625 -17.773438 28.703125 -16.046875C 30.378906 -14.191406 31.21875 -11.992188 31.21875 -9.453125C 31.21875 -4.765625 28.726562 -1.644531 23.75 -0.09375C 21.84375 0.539062 19.765625 0.859375 17.515625 0.859375C 13.347656 0.804688 9.734375 -0.226562 6.671875 -2.25C 6.671875 -0.75 6.296875 0.113281 5.546875 0.34375C 5.203125 0.40625 4.796875 0.4375 4.328125 0.4375L4.328125 0.4375L4.328125 -12.75L6.765625 -12.75C 6.878906 -5.289062 10.113281 -1.53125 16.46875 -1.46875z" stroke="none" fill="#000000" fill-rule="nonzero" />
        </g>
      </g>
    </g>
    <g>
      <g transform="matrix(1 0 0 1 511.76218 434.81476)">
        <g>
          <path d="M21.59375 -35.546875C 25.632812 -35.546875 28.320312 -33.84375 29.65625 -30.4375C 30.113281 -29.332031 30.34375 -28.144531 30.34375 -26.875C 30.34375 -23.988281 28.957031 -22.226562 26.1875 -21.59375C 24.738281 -21.300781 22.6875 -21.179688 20.03125 -21.234375L20.03125 -21.234375L10.84375 -21.5C 11.125 -28.144531 13.289062 -32.476562 17.34375 -34.5C 18.664062 -35.195312 20.082031 -35.546875 21.59375 -35.546875zM36.671875 -8.328125L34.5 -9.109375C 32.476562 -4.710938 29.210938 -2.222656 24.703125 -1.640625C 24.128906 -1.585938 23.582031 -1.5625 23.0625 -1.5625C 16.988281 -1.5625 13.175781 -5.171875 11.625 -12.390625C 11.15625 -14.421875 10.894531 -16.648438 10.84375 -19.078125L10.84375 -19.078125L21.234375 -18.90625C 28.285156 -18.789062 32.828125 -19.453125 34.859375 -20.890625C 36.410156 -22.046875 37.1875 -23.695312 37.1875 -25.84375C 37.1875 -29.769531 35.195312 -32.890625 31.21875 -35.203125C 28.382812 -36.878906 25.117188 -37.71875 21.421875 -37.71875C 14.191406 -37.71875 9.015625 -34.710938 5.890625 -28.703125C 4.273438 -25.578125 3.46875 -22.050781 3.46875 -18.125C 3.46875 -10.957031 6.039062 -5.640625 11.1875 -2.171875C 14.25 -0.148438 17.742188 0.859375 21.671875 0.859375C 27.910156 0.859375 32.503906 -1.390625 35.453125 -5.890625C 35.921875 -6.703125 36.328125 -7.515625 36.671875 -8.328125z" stroke="none" fill="#000000" fill-rule="nonzero" />
        </g>
      </g>
    </g>
    <g>
      <g transform="matrix(1 0 0 1 551.9922 434.81476)">
        <g>
          <path d="M19.5 -2.171875L15.609375 -2.171875L15.609375 -20.890625C 15.773438 -26.265625 17.679688 -30.140625 21.328125 -32.515625C 22.890625 -33.492188 24.476562 -33.984375 26.09375 -33.984375C 29.625 -33.984375 32.023438 -32.335938 33.296875 -29.046875C 33.816406 -27.710938 34.078125 -26.207031 34.078125 -24.53125L34.078125 -24.53125L34.078125 -7.375C 34.078125 -4.707031 33.320312 -3.113281 31.8125 -2.59375C 30.945312 -2.3125 29.535156 -2.171875 27.578125 -2.171875L27.578125 -2.171875L27.578125 0L47.078125 0C 47.078125 -1.269531 46.64453 -1.960938 45.78125 -2.078125C 45.55078 -2.140625 45.257812 -2.171875 44.90625 -2.171875L44.90625 -2.171875L40.578125 -2.171875L40.578125 -23.671875C 40.578125 -29.453125 38.58203 -33.58203 34.59375 -36.0625C 32.73828 -37.164062 30.742188 -37.71875 28.609375 -37.71875C 24.335938 -37.71875 20.8125 -36.007812 18.03125 -32.59375C 16.988281 -31.269531 16.148438 -29.796875 15.515625 -28.171875L15.515625 -28.171875L15.171875 -36.84375L2.59375 -36.84375L2.59375 -34.6875L9.109375 -34.6875L9.109375 -7.375C 9.109375 -4.707031 8.351562 -3.113281 6.84375 -2.59375C 5.976562 -2.3125 4.5625 -2.171875 2.59375 -2.171875L2.59375 -2.171875L2.59375 0L21.671875 0C 21.671875 -1.269531 21.238281 -1.960938 20.375 -2.078125C 20.144531 -2.140625 19.851562 -2.171875 19.5 -2.171875z" stroke="none" fill="#000000" fill-rule="nonzero" />
        </g>
      </g>
    </g>
    <g>
      <g transform="matrix(1 0 0 1 601.23926 434.81476)">
        <g>
          <path d="M33.03125 0L45.4375 0C 45.4375 -1.269531 45 -1.960938 44.125 -2.078125C 43.89453 -2.140625 43.609375 -2.171875 43.265625 -2.171875L43.265625 -2.171875L38.921875 -2.171875L38.75 -56.359375L24.015625 -56.359375L24.015625 -54.1875L32.25 -54.1875L32.25 -33.03125C 29.414062 -36.15625 25.601562 -37.71875 20.8125 -37.71875C 14.445312 -37.71875 9.648438 -34.882812 6.421875 -29.21875C 4.453125 -25.75 3.46875 -21.847656 3.46875 -17.515625C 3.46875 -10.347656 5.722656 -5.117188 10.234375 -1.828125C 12.773438 -0.0351562 15.578125 0.859375 18.640625 0.859375C 24.941406 0.742188 29.507812 -2.601562 32.34375 -9.1875L32.34375 -9.1875L33.03125 0zM10.84375 -18.546875C 10.84375 -26.703125 13.035156 -31.992188 17.421875 -34.421875C 18.804688 -35.171875 20.335938 -35.546875 22.015625 -35.546875C 26.234375 -35.546875 29.238281 -33.289062 31.03125 -28.78125C 32.01953 -26.351562 32.515625 -23.492188 32.515625 -20.203125C 32.515625 -13.265625 30.78125 -8.234375 27.3125 -5.109375C 25.457031 -3.429688 23.347656 -2.59375 20.984375 -2.59375C 16.242188 -2.59375 13.148438 -5.484375 11.703125 -11.265625C 11.128906 -13.410156 10.84375 -15.835938 10.84375 -18.546875z" stroke="none" fill="#000000" fill-rule="nonzero" />
        </g>
      </g>
    </g>
    <g>
      <g transform="matrix(1 0 0 1 648.7523 434.81476)">
        <g>
          <path d="M21.59375 -35.546875C 25.632812 -35.546875 28.320312 -33.84375 29.65625 -30.4375C 30.113281 -29.332031 30.34375 -28.144531 30.34375 -26.875C 30.34375 -23.988281 28.957031 -22.226562 26.1875 -21.59375C 24.738281 -21.300781 22.6875 -21.179688 20.03125 -21.234375L20.03125 -21.234375L10.84375 -21.5C 11.125 -28.144531 13.289062 -32.476562 17.34375 -34.5C 18.664062 -35.195312 20.082031 -35.546875 21.59375 -35.546875zM36.671875 -8.328125L34.5 -9.109375C 32.476562 -4.710938 29.210938 -2.222656 24.703125 -1.640625C 24.128906 -1.585938 23.582031 -1.5625 23.0625 -1.5625C 16.988281 -1.5625 13.175781 -5.171875 11.625 -12.390625C 11.15625 -14.421875 10.894531 -16.648438 10.84375 -19.078125L10.84375 -19.078125L21.234375 -18.90625C 28.285156 -18.789062 32.828125 -19.453125 34.859375 -20.890625C 36.410156 -22.046875 37.1875 -23.695312 37.1875 -25.84375C 37.1875 -29.769531 35.195312 -32.890625 31.21875 -35.203125C 28.382812 -36.878906 25.117188 -37.71875 21.421875 -37.71875C 14.191406 -37.71875 9.015625 -34.710938 5.890625 -28.703125C 4.273438 -25.578125 3.46875 -22.050781 3.46875 -18.125C 3.46875 -10.957031 6.039062 -5.640625 11.1875 -2.171875C 14.25 -0.148438 17.742188 0.859375 21.671875 0.859375C 27.910156 0.859375 32.503906 -1.390625 35.453125 -5.890625C 35.921875 -6.703125 36.328125 -7.515625 36.671875 -8.328125z" stroke="none" fill="#000000" fill-rule="nonzero" />
        </g>
      </g>
    </g>
    <g>
      <g transform="matrix(1 0 0 1 688.97516 434.81476)">
        <g></g>
      </g>
    </g>
    <path transform="matrix(6.757935 0 0 6.75 68.31322 462.4282)" d="M-0.000105959 0.000219669L38.39978 0.000219669" stroke="#000000" stroke-width="1" fill="none" />
    <path transform="matrix(6.757935 0 0 6.75 469.80002 462.4282)" d="M0.000115033 0.000219669L38.4 0.000219669" stroke="#000000" stroke-width="1" fill="none" />
    <g>
      <g transform="matrix(1 0 0 1 337.81473 472.3645)">
        <g>
          <path d="M15.90625 -17.859375C 15.769531 -19.035156 15.203125 -19.945312 14.203125 -20.59375C 13.210938 -21.25 12 -21.578125 10.5625 -21.578125C 8.976562 -21.578125 7.703125 -21.203125 6.734375 -20.453125C 5.773438 -19.710938 5.296875 -18.769531 5.296875 -17.625C 5.296875 -16.78125 5.554688 -16.09375 6.078125 -15.5625C 6.609375 -15.039062 7.234375 -14.632812 7.953125 -14.34375C 8.671875 -14.050781 9.320312 -13.828125 9.90625 -13.671875L9.90625 -13.671875L12.328125 -13.03125C 12.953125 -12.863281 13.644531 -12.632812 14.40625 -12.34375C 15.164062 -12.0625 15.894531 -11.671875 16.59375 -11.171875C 17.300781 -10.679688 17.882812 -10.050781 18.34375 -9.28125C 18.800781 -8.519531 19.03125 -7.582031 19.03125 -6.46875C 19.03125 -5.175781 18.691406 -4.007812 18.015625 -2.96875C 17.347656 -1.9375 16.375 -1.113281 15.09375 -0.5C 13.8125 0.113281 12.253906 0.421875 10.421875 0.421875C 7.859375 0.421875 5.820312 -0.179688 4.3125 -1.390625C 2.8125 -2.597656 1.992188 -4.179688 1.859375 -6.140625L1.859375 -6.140625L4.84375 -6.140625C 4.914062 -5.242188 5.21875 -4.5 5.75 -3.90625C 6.28125 -3.320312 6.953125 -2.890625 7.765625 -2.609375C 8.585938 -2.328125 9.472656 -2.1875 10.421875 -2.1875C 11.523438 -2.1875 12.515625 -2.363281 13.390625 -2.71875C 14.265625 -3.082031 14.957031 -3.585938 15.46875 -4.234375C 15.976562 -4.878906 16.234375 -5.640625 16.234375 -6.515625C 16.234375 -7.304688 16.007812 -7.945312 15.5625 -8.4375C 15.125 -8.9375 14.546875 -9.34375 13.828125 -9.65625C 13.109375 -9.96875 12.328125 -10.238281 11.484375 -10.46875L11.484375 -10.46875L8.5625 -11.296875C 6.695312 -11.835938 5.222656 -12.601562 4.140625 -13.59375C 3.054688 -14.582031 2.515625 -15.878906 2.515625 -17.484375C 2.515625 -18.816406 2.875 -19.984375 3.59375 -20.984375C 4.320312 -21.984375 5.300781 -22.757812 6.53125 -23.3125C 7.757812 -23.863281 9.132812 -24.140625 10.65625 -24.140625C 12.1875 -24.140625 13.546875 -23.863281 14.734375 -23.3125C 15.929688 -22.769531 16.878906 -22.023438 17.578125 -21.078125C 18.285156 -20.140625 18.660156 -19.066406 18.703125 -17.859375L18.703125 -17.859375L15.90625 -17.859375z" stroke="none" fill="#000000" fill-rule="nonzero" />
        </g>
      </g>
    </g>
    <g>
      <g transform="matrix(1 0 0 1 358.70267 472.3645)">
        <g>
          <path d="M1.578125 -21.265625L1.578125 -23.8125L19.453125 -23.8125L19.453125 -21.265625L11.953125 -21.265625L11.953125 0L9.078125 0L9.078125 -21.265625L1.578125 -21.265625z" stroke="none" fill="#000000" fill-rule="nonzero" />
        </g>
      </g>
    </g>
    <g>
      <g transform="matrix(1 0 0 1 379.7302 472.3645)">
        <g>
          <path d="M18.515625 -23.8125L21.40625 -23.8125L21.40625 -8.046875C 21.40625 -6.265625 20.976562 -4.738281 20.125 -3.46875C 19.28125 -2.207031 18.15625 -1.242188 16.75 -0.578125C 15.351562 0.0859375 13.816406 0.421875 12.140625 0.421875C 10.460938 0.421875 8.921875 0.0859375 7.515625 -0.578125C 6.117188 -1.242188 5 -2.207031 4.15625 -3.46875C 3.3125 -4.738281 2.890625 -6.265625 2.890625 -8.046875L2.890625 -8.046875L2.890625 -23.8125L5.765625 -23.8125L5.765625 -8.046875C 5.765625 -6.804688 6.054688 -5.753906 6.640625 -4.890625C 7.234375 -4.035156 8.015625 -3.382812 8.984375 -2.9375C 9.953125 -2.5 11.003906 -2.28125 12.140625 -2.28125C 13.273438 -2.28125 14.328125 -2.5 15.296875 -2.9375C 16.265625 -3.382812 17.039062 -4.035156 17.625 -4.890625C 18.21875 -5.753906 18.515625 -6.804688 18.515625 -8.046875L18.515625 -8.046875L18.515625 -23.8125z" stroke="none" fill="#000000" fill-rule="nonzero" />
        </g>
      </g>
    </g>
    <g>
      <g transform="matrix(1 0 0 1 404.0142 472.3645)">
        <g>
          <path d="M10.234375 0L2.890625 0L2.890625 -23.8125L10.5625 -23.8125C 12.875 -23.8125 14.847656 -23.335938 16.484375 -22.390625C 18.128906 -21.441406 19.390625 -20.082031 20.265625 -18.3125C 21.140625 -16.539062 21.578125 -14.421875 21.578125 -11.953125C 21.578125 -9.472656 21.132812 -7.335938 20.25 -5.546875C 19.375 -3.765625 18.085938 -2.394531 16.390625 -1.4375C 14.703125 -0.476562 12.648438 0 10.234375 0zM5.765625 -2.5625L10.046875 -2.5625C 13.003906 -2.5625 15.203125 -3.398438 16.640625 -5.078125C 18.078125 -6.753906 18.796875 -9.046875 18.796875 -11.953125C 18.796875 -14.835938 18.085938 -17.109375 16.671875 -18.765625C 15.265625 -20.429688 13.164062 -21.265625 10.375 -21.265625L10.375 -21.265625L5.765625 -21.265625z" stroke="none" fill="#000000" fill-rule="nonzero" />
        </g>
      </g>
    </g>
    <g>
      <g transform="matrix(1 0 0 1 427.55386 472.3645)">
        <g>
          <path d="M5.765625 -23.8125L5.765625 0L2.890625 0L2.890625 -23.8125L5.765625 -23.8125z" stroke="none" fill="#000000" fill-rule="nonzero" />
        </g>
      </g>
    </g>
    <g>
      <g transform="matrix(1 0 0 1 436.20676 472.3645)">
        <g>
          <path d="M22.984375 -11.90625C 22.984375 -9.394531 22.53125 -7.222656 21.625 -5.390625C 20.71875 -3.566406 19.472656 -2.15625 17.890625 -1.15625C 16.304688 -0.164062 14.5 0.328125 12.46875 0.328125C 10.4375 0.328125 8.628906 -0.164062 7.046875 -1.15625C 5.460938 -2.15625 4.21875 -3.566406 3.3125 -5.390625C 2.40625 -7.222656 1.953125 -9.394531 1.953125 -11.90625C 1.953125 -14.414062 2.40625 -16.585938 3.3125 -18.421875C 4.21875 -20.253906 5.460938 -21.664062 7.046875 -22.65625C 8.628906 -23.644531 10.4375 -24.140625 12.46875 -24.140625C 14.5 -24.140625 16.304688 -23.644531 17.890625 -22.65625C 19.472656 -21.664062 20.71875 -20.253906 21.625 -18.421875C 22.53125 -16.585938 22.984375 -14.414062 22.984375 -11.90625zM20.1875 -11.90625C 20.1875 -13.96875 19.84375 -15.707031 19.15625 -17.125C 18.46875 -18.550781 17.539062 -19.628906 16.375 -20.359375C 15.207031 -21.085938 13.90625 -21.453125 12.46875 -21.453125C 11.019531 -21.453125 9.710938 -21.085938 8.546875 -20.359375C 7.378906 -19.628906 6.453125 -18.550781 5.765625 -17.125C 5.085938 -15.707031 4.75 -13.96875 4.75 -11.90625C 4.75 -9.84375 5.085938 -8.101562 5.765625 -6.6875C 6.453125 -5.269531 7.378906 -4.195312 8.546875 -3.46875C 9.710938 -2.738281 11.019531 -2.375 12.46875 -2.375C 13.90625 -2.375 15.207031 -2.738281 16.375 -3.46875C 17.539062 -4.195312 18.46875 -5.269531 19.15625 -6.6875C 19.84375 -8.101562 20.1875 -9.84375 20.1875 -11.90625z" stroke="none" fill="#000000" fill-rule="nonzero" />
        </g>
      </g>
    </g>
  </g>
</svg>